<?xml version="1.0" standalone="no"?>
<!DOCTYPE svg PUBLIC "-//W3C//DTD SVG 20010904//EN"
 "http://www.w3.org/TR/2001/REC-SVG-20010904/DTD/svg10.dtd">
<svg version="1.0" xmlns="http://www.w3.org/2000/svg"
 width="2251.000000pt" height="2251.000000pt" viewBox="0 0 2251.000000 2251.000000"
 preserveAspectRatio="xMidYMid meet">
<metadata>
Created by potrace 1.14, written by Peter Selinger 2001-2017
</metadata>
<g transform="translate(0.000000,2251.000000) scale(0.100000,-0.100000)"
fill="#000000" stroke="none">
<path d="M10629 22506 c-2 -2 -58 -7 -124 -11 -66 -4 -131 -8 -145 -10 -14 -1
-65 -6 -113 -10 -48 -3 -96 -8 -105 -10 -9 -1 -53 -6 -96 -10 -43 -4 -86 -8
-95 -10 -9 -1 -43 -6 -76 -9 -57 -7 -86 -11 -165 -21 -19 -3 -53 -8 -75 -10
-22 -3 -51 -8 -65 -10 -14 -3 -38 -7 -55 -9 -143 -23 -386 -66 -510 -92 -38
-8 -79 -16 -90 -18 -11 -3 -63 -14 -115 -26 -52 -12 -105 -23 -116 -26 -12 -2
-93 -22 -180 -45 -88 -22 -168 -42 -179 -45 -11 -2 -74 -20 -140 -39 -66 -20
-128 -38 -138 -40 -66 -15 -565 -181 -692 -230 -346 -132 -597 -237 -865 -361
-112 -52 -498 -246 -590 -296 -390 -216 -674 -389 -1020 -625 -88 -60 -282
-199 -380 -272 -122 -91 -120 -90 -190 -146 -25 -20 -52 -42 -60 -48 -38 -30
-216 -172 -220 -177 -3 -3 -34 -30 -70 -60 -77 -65 -209 -181 -340 -299 -123
-111 -549 -537 -667 -666 -117 -129 -244 -273 -313 -355 -30 -36 -57 -67 -60
-70 -3 -3 -24 -27 -45 -55 -22 -27 -42 -52 -45 -55 -30 -28 -286 -365 -427
-560 -129 -180 -453 -669 -453 -685 0 -2 -13 -24 -30 -48 -16 -25 -30 -48 -30
-51 0 -3 -15 -29 -32 -59 -51 -81 -52 -84 -129 -222 -601 -1074 -1037 -2285
-1243 -3450 -3 -16 -8 -41 -10 -55 -3 -14 -8 -41 -10 -60 -3 -19 -8 -45 -10
-56 -8 -37 -15 -89 -41 -269 -3 -22 -7 -49 -10 -60 -2 -11 -7 -47 -10 -80 -4
-33 -8 -71 -11 -85 -2 -14 -6 -50 -9 -80 -3 -30 -8 -71 -10 -90 -2 -19 -8 -66
-12 -105 -11 -93 -10 -2138 0 -2240 5 -44 10 -93 12 -110 2 -16 7 -51 10 -77
9 -85 16 -142 20 -168 2 -14 7 -47 10 -75 4 -27 8 -61 10 -75 3 -14 7 -43 10
-65 3 -22 10 -65 15 -95 5 -30 12 -73 15 -95 3 -22 26 -146 51 -275 25 -129
48 -246 50 -260 10 -52 76 -330 105 -440 264 -998 641 -1918 1144 -2790 355
-615 765 -1192 1235 -1738 72 -85 139 -161 148 -171 10 -10 62 -67 117 -127
289 -314 703 -709 1045 -994 171 -142 159 -132 265 -216 1028 -812 2220 -1452
3465 -1861 437 -143 1124 -319 1440 -367 19 -3 46 -8 60 -11 27 -6 240 -41
305 -50 22 -4 67 -10 100 -16 35 -5 711 -9 1636 -9 1720 0 1610 -3 1924 55 44
8 118 21 165 30 317 56 742 158 1120 269 400 118 966 323 1248 452 41 19 75
34 77 34 2 0 36 15 77 34 40 18 99 45 131 60 719 327 1491 797 2182 1328 479
369 1017 866 1430 1322 44 49 89 98 100 110 11 12 47 53 80 91 33 39 62 72 65
75 3 3 37 43 75 90 38 47 72 87 75 90 20 20 341 433 380 490 8 12 29 41 46 64
192 255 524 780 728 1149 229 412 472 931 627 1337 22 58 45 114 50 125 17 37
116 319 172 490 89 274 150 484 223 780 49 200 46 185 73 312 10 50 22 99 25
110 3 10 8 38 11 63 4 24 8 47 10 50 2 3 6 26 10 50 3 25 10 61 15 80 5 19 12
55 15 80 3 25 8 52 10 60 2 8 6 32 9 52 7 48 17 106 21 127 1 9 6 41 10 71 4
30 9 63 11 74 2 10 6 44 10 75 3 31 10 76 15 101 9 51 7 2852 -3 2890 -4 14
-9 45 -12 70 -3 25 -8 54 -10 65 -2 11 -7 43 -10 70 -4 28 -10 66 -12 85 -3
19 -7 46 -10 60 -2 14 -11 68 -20 120 -8 52 -17 104 -19 115 -9 52 -67 334
-75 365 -5 19 -12 49 -14 66 -3 17 -22 96 -41 175 -20 79 -38 153 -40 164 -29
122 -148 531 -205 705 -79 239 -221 628 -265 725 -7 17 -23 53 -34 81 -11 28
-29 71 -39 95 -11 24 -46 103 -78 174 -114 259 -292 620 -402 817 -10 18 -33
59 -51 91 -306 551 -675 1095 -1099 1622 -80 99 -148 182 -151 185 -3 3 -53
59 -110 125 -58 66 -112 127 -120 136 -9 9 -59 63 -111 120 -219 239 -598 607
-849 825 -19 16 -39 34 -45 39 -34 31 -212 180 -281 235 -44 35 -82 67 -85 70
-9 9 -278 215 -320 245 -16 11 -95 67 -177 125 -151 108 -310 217 -341 235 -9
5 -30 19 -47 30 -309 211 -977 581 -1380 765 -512 234 -955 404 -1430 549
-217 67 -297 91 -320 96 -11 2 -47 11 -80 20 -33 9 -94 26 -135 36 -41 11 -82
21 -90 23 -48 13 -293 69 -335 77 -27 5 -59 11 -70 13 -128 28 -362 72 -455
86 -41 6 -86 13 -100 16 -93 15 -151 24 -190 28 -25 3 -58 7 -75 10 -29 4 -65
9 -170 21 -27 3 -64 8 -80 10 -17 2 -60 7 -95 10 -36 3 -81 8 -100 10 -19 2
-80 7 -135 10 -55 4 -116 10 -135 12 -42 6 -1415 15 -1421 9z"/>
</g>
</svg>
